<?xml version="1.0" encoding="utf-8"?><svg xmlns="http://www.w3.org/2000/svg" xmlns:xlink="http://www.w3.org/1999/xlink"><symbol viewBox="0 0 249.425 249.425" id="check-square" xmlns="http://www.w3.org/2000/svg"><path d="M206.79 81.505a6 6 0 0 0-6 6v149.919H12V48.635h146.792a6 6 0 0 0 0-12H6a6 6 0 0 0-6 6v200.789a6 6 0 0 0 6 6h200.79a6 6 0 0 0 6-6V87.505a6 6 0 0 0-6-6z"/><path d="M247.667 1.758a5.998 5.998 0 0 0-8.485 0L80.416 160.523 41.023 121.13a5.998 5.998 0 0 0-8.485 0 5.999 5.999 0 0 0 0 8.484l43.636 43.636c1.171 1.172 2.707 1.758 4.243 1.758s3.071-.586 4.243-1.758L247.667 10.243a5.998 5.998 0 0 0 0-8.485z"/></symbol><symbol viewBox="0 0 448 448" id="checked" xmlns="http://www.w3.org/2000/svg"><path d="M341.333 192.96v188.16H42.667V82.453h266.026l46.934-42.666H0v384h384v-270.08z"/><path d="M417.493 24.213L186.027 234.56l-72.534-72.32-28.16 28.16 102.614 102.613L448 54.08z"/></symbol><symbol viewBox="0 0 224 224" id="list" xmlns="http://www.w3.org/2000/svg"><path d="M13.35 27.806h197.3c17.8.5 17.8-28.299 0-27.799H13.35c-17.8-.501-17.8 28.299 0 27.799zm197.3 70.298H13.35c-17.8-.5-17.8 28.299 0 27.799h197.3c17.8.5 17.8-28.299 0-27.799zm0 97.597H13.35c-17.8 0-17.8 28.299 0 28.299h197.3c17.8 0 17.8-28.299 0-28.299z"/></symbol><symbol viewBox="0 0 451 451" id="magnifying-glass" xmlns="http://www.w3.org/2000/svg"><path d="M447.05 428l-109.6-109.6c29.4-33.8 47.2-77.9 47.2-126.1C384.65 86.2 298.35 0 192.35 0 86.25 0 .05 86.3.05 192.3s86.3 192.3 192.3 192.3c48.2 0 92.3-17.8 126.1-47.2L428.05 447c2.6 2.6 6.1 4 9.5 4s6.9-1.3 9.5-4c5.2-5.2 5.2-13.8 0-19zM26.95 192.3c0-91.2 74.2-165.3 165.3-165.3 91.2 0 165.3 74.2 165.3 165.3s-74.1 165.4-165.3 165.4c-91.1 0-165.3-74.2-165.3-165.4z"/></symbol><symbol viewBox="0 0 477.175 477.175" id="next" xmlns="http://www.w3.org/2000/svg"><path d="M360.731 229.075l-225.1-225.1c-5.3-5.3-13.8-5.3-19.1 0s-5.3 13.8 0 19.1l215.5 215.5-215.5 215.5c-5.3 5.3-5.3 13.8 0 19.1 2.6 2.6 6.1 4 9.5 4 3.4 0 6.9-1.3 9.5-4l225.1-225.1c5.3-5.2 5.3-13.8.1-19z"/></symbol><symbol viewBox="0 0 486.569 486.569" id="shopping-cart" xmlns="http://www.w3.org/2000/svg"><path d="M146.069 320.369h268.1c30.4 0 55.2-24.8 55.2-55.2v-114c0-.2 0-.4-.1-.6 0-.2-.1-.5-.1-.7s-.1-.4-.1-.6c-.1-.2-.1-.4-.2-.7-.1-.2-.1-.4-.2-.6-.1-.2-.1-.4-.2-.6-.1-.2-.2-.4-.3-.7-.1-.2-.2-.4-.3-.5l-.3-.6c-.1-.2-.2-.3-.3-.5-.1-.2-.3-.4-.4-.6-.1-.2-.2-.3-.4-.5-.1-.2-.3-.3-.4-.5s-.3-.3-.4-.5-.3-.3-.4-.4l-.5-.5c-.2-.1-.3-.3-.5-.4-.2-.1-.4-.3-.6-.4-.2-.1-.3-.2-.5-.3s-.4-.2-.6-.4l-.6-.3-.6-.3-.6-.3c-.2-.1-.4-.1-.6-.2-.2-.1-.5-.2-.7-.2s-.4-.1-.5-.1c-.3-.1-.5-.1-.8-.1-.1 0-.2-.1-.4-.1l-339.8-46.9v-47.4c0-.5 0-1-.1-1.4 0-.1 0-.2-.1-.4 0-.3-.1-.6-.1-.9-.1-.3-.1-.5-.2-.8 0-.2-.1-.3-.1-.5l-.3-.9c0-.1-.1-.3-.1-.4-.1-.3-.2-.5-.4-.8-.1-.1-.1-.3-.2-.4-.1-.2-.2-.4-.4-.6-.1-.2-.2-.3-.3-.5s-.2-.3-.3-.5-.3-.4-.4-.6l-.3-.3-.6-.6-.3-.3c-.2-.2-.4-.4-.7-.6-.1-.1-.3-.2-.4-.3-.2-.2-.4-.3-.6-.5-.3-.2-.6-.4-.8-.5-.1-.1-.2-.1-.3-.2-.4-.2-.9-.4-1.3-.6l-73.7-31c-6.9-2.9-14.8.3-17.7 7.2s.3 14.8 7.2 17.7l65.4 27.6v295.8c0 28 21 51.2 48.1 54.7-4.9 8.2-7.8 17.8-7.8 28 0 30.1 24.5 54.5 54.5 54.5s54.5-24.5 54.5-54.5c0-10-2.7-19.5-7.5-27.5h121.4c-4.8 8.1-7.5 17.5-7.5 27.5 0 30.1 24.5 54.5 54.5 54.5s54.5-24.5 54.5-54.5-24.5-54.5-54.5-54.5h-255c-15.6 0-28.2-12.7-28.2-28.2v-36.6c8.2 4.8 17.9 7.6 28.2 7.6zm67.2 111.6c0 15.2-12.4 27.5-27.5 27.5s-27.5-12.4-27.5-27.5 12.4-27.5 27.5-27.5 27.5 12.3 27.5 27.5zm215.4 0c0 15.2-12.4 27.5-27.5 27.5s-27.5-12.4-27.5-27.5 12.4-27.5 27.5-27.5 27.5 12.3 27.5 27.5zm-14.5-138.6h-268.1c-15.6 0-28.2-12.7-28.2-28.2v-145.9l324.5 44.7v101.1c0 15.7-12.7 28.3-28.2 28.3z"/></symbol><symbol viewBox="0 0 307.64155 100.03333" id="visa" xmlns="http://www.w3.org/2000/svg"><path d="M231.879 94.094c-2.584-.247-6.937-1.075-6.937-1.32 0-.1 1.052-.524 2.339-.943 1.286-.42 3.847-1.518 5.69-2.441l3.353-1.68 3.007 1.52c1.654.836 4.248 1.938 5.764 2.448 1.515.51 2.668 1.01 2.562 1.11-.321.302-4.334 1.03-7.206 1.307-3.035.293-5.49.293-8.572-.001zm23.945.003c-2.76-.307-6.878-1.093-6.877-1.312 0-.093 1.092-.514 2.425-.935 1.333-.421 3.973-1.534 5.866-2.472 12.43-6.163 21.442-17.42 24.885-31.083.242-.96.397-1.146.953-1.146h.664V46.874l.72-.668c.908-.841 1.678-1.035 3.332-.84l1.31.156.329-1.47c.18-.81.239-1.562.128-1.672-.41-.41-4.041-.213-4.984.272-.505.26-.952.472-.992.472-.08 0-.401-1.521-1.081-5.125-1.823-9.664-7.476-19.509-14.992-26.112-4.632-4.07-10.459-7.444-16.105-9.326l-2.801-.933 1.048-.273c3.867-1.007 9.705-1.464 14.255-1.117 6.276.48 11.3 1.814 16.866 4.48 5.106 2.447 8.774 5.067 12.955 9.259 4.12 4.129 6.538 7.453 9.01 12.388 7.027 14.026 6.426 31.046-1.576 44.643-7.013 11.915-19.021 20.26-32.478 22.569-3.627.622-9.722.869-12.86.52zm45.312-37.17l.81-.222.07-10.567.07-10.567h-3.242v6.474h-2.013c-2.826 0-4.623.715-6.2 2.468-3.285 3.654-2.438 9.665 1.676 11.902 2.124 1.155 5.711 1.362 8.83.511zm-6.796-3.03c-1.437-.72-2.24-2.253-2.24-4.281 0-3.153 2.262-4.974 5.561-4.479l1.196.18-.074 4.5-.074 4.5-1.618.073c-1.214.055-1.902-.068-2.751-.493zm10.738 2.966c.761-.408 1.122-1.497.738-2.227-.406-.77-.753-.984-1.604-.99-1.506-.009-2.232 2.063-1.057 3.014.69.56 1.163.609 1.923.203zm-1.11-.508c0-.452.479-.564.638-.149.094.245 0 .403-.242.403-.217 0-.396-.114-.396-.254zm-.756-.96c.005-.445.066-.594.134-.332.068.263.064.627-.01.81-.074.182-.13-.032-.124-.477zm1.702.407c-.091-.147-.041-.48.11-.742.237-.406.278-.368.285.268.008.776-.117.925-.395.474zM152.878 84.206c.194-.078.427-.069.517.02.09.09-.07.154-.354.143-.315-.013-.379-.077-.163-.163zm-2.967-.54c.194-.078.427-.068.517.021.09.09-.07.154-.354.142-.315-.013-.378-.077-.163-.163zm9.037-1.434c0-.964.05-1.359.109-.876.06.482.06 1.27 0 1.753-.06.482-.109.087-.109-.877zm-92.38 1.164c.196-.077.428-.068.518.022.09.09-.07.153-.354.141-.314-.013-.378-.076-.163-.163zm81.724 0c.195-.077.428-.068.517.022.09.09-.07.153-.354.141-.314-.013-.378-.076-.163-.163zm-80.105-.27c.195-.077.428-.068.517.022.09.09-.07.153-.354.142-.314-.013-.378-.077-.163-.163zm78.487 0c.195-.077.427-.068.517.022.09.09-.07.153-.354.142-.314-.013-.378-.077-.163-.163zm-76.869-.269c.195-.078.428-.068.517.021.09.09-.07.154-.354.142-.314-.013-.378-.077-.163-.163zm75.25 0c.196-.078.428-.068.518.021.09.09-.07.154-.354.142-.314-.013-.378-.077-.163-.163zm-73.631-.27c.194-.078.427-.068.517.022.09.09-.07.153-.354.141-.314-.013-.378-.077-.163-.163zm71.744 0c.195-.078.427-.068.517.022.09.09-.07.153-.354.141-.314-.013-.378-.077-.163-.163zm-70.143-.264a1.04 1.04 0 0 1 .675 0c.185.075.033.136-.338.136-.37 0-.522-.061-.337-.136zm68.238 0a1.04 1.04 0 0 1 .674 0c.186.075.034.136-.337.136-.37 0-.522-.061-.337-.136zm-66.35-.27a1.04 1.04 0 0 1 .675 0c.185.075.033.137-.338.137-.37 0-.522-.062-.337-.137zm64.462 0a1.04 1.04 0 0 1 .674 0c.186.075.034.137-.337.137-.37 0-.522-.062-.337-.137zm-62.574-.27a1.04 1.04 0 0 1 .675 0c.185.076.033.137-.338.137-.37 0-.522-.061-.337-.136zm60.416 0a1.04 1.04 0 0 1 .675 0c.185.076.033.137-.338.137-.37 0-.522-.061-.337-.136zm-58.258-.269a1.04 1.04 0 0 1 .674 0c.186.075.034.136-.337.136-.37 0-.522-.061-.337-.136zm56.1 0a1.04 1.04 0 0 1 .675 0c.185.075.034.136-.337.136s-.523-.061-.337-.136zm-53.947-.268c.182-.074.546-.078.809-.01.262.068.113.129-.332.134-.445.005-.66-.05-.477-.124zm51.515 0c.183-.074.547-.078.81-.01.262.068.112.129-.333.134-.445.005-.66-.05-.477-.124zm-48.813-.271a1.04 1.04 0 0 1 .674 0c.186.075.034.136-.337.136-.37 0-.523-.061-.337-.136zm46.116.002c.182-.074.547-.079.809-.01.262.068.113.128-.332.134-.445.005-.66-.05-.477-.124zm-43.424-.27c.182-.074.547-.079.809-.01.262.068.113.128-.332.134-.445.005-.66-.05-.477-.125zm40.597-.01c.26-.067.684-.067.944 0 .26.068.047.124-.472.124-.52 0-.732-.056-.472-.124zm-37.22-.27c.259-.067.684-.067.943 0 .26.069.048.124-.472.124-.519 0-.731-.056-.472-.123zm33.714 0c.26-.067.684-.067.944 0 .26.069.047.124-.472.124-.52 0-.732-.056-.472-.123zm-29.665-.277c.41-.062 1.017-.06 1.348.004.332.064-.003.115-.745.113-.742-.002-1.013-.054-.603-.116zm25.083 0c.41-.062 1.017-.06 1.349.004.332.064-.004.115-.746.113-.741-.002-1.013-.054-.603-.116zm-18.614-.275a29.98 29.98 0 0 1 3.102 0c.853.053.155.097-1.55.097-1.707 0-2.405-.044-1.552-.097zm10.25 0a29.98 29.98 0 0 1 3.101 0c.853.053.155.097-1.55.097-1.707 0-2.405-.044-1.552-.097zm48.564-4.251c.002-.89.052-1.222.112-.737.06.485.059 1.213-.003 1.618-.062.406-.11.008-.11-.881zm-70.53-4.095c.195-.078.428-.069.517.021.09.09-.07.153-.354.142-.314-.013-.378-.077-.162-.163zm2.967-.54c.195-.078.428-.068.517.022.09.09-.07.153-.354.141-.314-.013-.378-.077-.163-.163zm1.619-.27c.194-.077.427-.068.517.022.09.09-.07.153-.354.142-.315-.013-.378-.077-.163-.163zm1.618-.27c.195-.077.427-.067.517.022.09.09-.07.154-.354.142-.314-.013-.378-.077-.163-.163zm64.575-.624c0-.52.055-.732.123-.472s.068.684 0 .944c-.068.26-.123.047-.123-.472zm-62.687.355c.195-.078.427-.068.517.022.09.09-.07.153-.354.141-.314-.013-.378-.077-.163-.163zm1.601-.264a1.04 1.04 0 0 1 .675 0c.185.075.033.136-.337.136-.371 0-.523-.061-.338-.136zm1.888-.27a1.04 1.04 0 0 1 .675 0c.185.075.033.136-.337.136-.371 0-.523-.06-.338-.136zm2.158-.27a1.04 1.04 0 0 1 .674 0c.186.076.034.137-.337.137-.37 0-.522-.062-.337-.136zm2.158-.269a1.04 1.04 0 0 1 .674 0c.186.075.034.136-.337.136-.37 0-.523-.061-.337-.136zm2.427-.27a1.04 1.04 0 0 1 .675 0c.185.075.033.136-.338.136-.37 0-.522-.06-.337-.136zm50.437 0a1.04 1.04 0 0 1 .674 0c.186.075.034.136-.337.136-.37 0-.523-.06-.337-.136zM109.7 68.57c.183-.074.547-.078.81-.01.262.068.112.129-.333.134-.445.005-.66-.05-.477-.124zm44.773 0c.182-.074.547-.078.809-.01s.113.129-.332.134c-.445.005-.66-.05-.477-.124zm-41.666-.278a2.21 2.21 0 0 1 .944 0c.26.067.047.123-.472.123-.52 0-.731-.056-.472-.123zm38.57 0c.259-.068.684-.068.943 0 .26.067.047.123-.472.123s-.731-.056-.472-.123zm-34.926-.275c.336-.064.821-.062 1.08.005.257.068-.017.12-.61.118-.594-.003-.805-.059-.47-.123zm31.014 0c.334-.064.88-.064 1.214 0 .334.065.06.118-.607.118s-.94-.053-.607-.117zm-26.571-.271c.405-.062 1.133-.063 1.618-.003.485.06.153.11-.737.112-.89.002-1.287-.048-.881-.11zm21.037 0c.406-.062 1.134-.063 1.619-.003.485.06.153.11-.737.112-.89.002-1.287-.048-.882-.11zm-11.58-.278c1.156-.05 2.977-.05 4.046 0 1.068.052.122.093-2.103.093s-3.1-.042-1.943-.093zm127.7-9.97c.336-.064.822-.062 1.08.006.257.067-.017.12-.61.117-.594-.003-.805-.058-.47-.123zm13.748.014c.182-.074.546-.078.809-.01.262.069.113.129-.332.134-.445.006-.66-.05-.477-.124zm-47.106-.52c.012-.314.076-.378.162-.162.078.194.069.427-.02.517-.09.09-.154-.07-.142-.354zm55.658-7.26c0-4.153.038-5.815.083-3.692a206.64 206.64 0 0 1 0 7.552c-.046 2.031-.083.294-.083-3.86zm-14.953 5.158c0-.056.213-.268.472-.472.428-.335.437-.326.102.102-.352.45-.574.592-.574.37zm7.232-.352c.195-.078.427-.068.517.021.09.09-.07.154-.354.142-.314-.013-.378-.077-.163-.163zm-14.587-.262c.183-.074.547-.079.81-.01.262.068.112.128-.333.134-.445.005-.66-.05-.477-.125zm-21.125-.97l-.514-.607.607.514c.57.483.73.7.513.7-.05 0-.324-.273-.606-.607zm-1.323-.472c.268-.296.549-.54.623-.54.074 0-.085.244-.354.54-.268.297-.548.54-.623.54-.074 0 .085-.243.354-.54zm27.106-.404c.503-.52.976-.944 1.05-.944.074 0-.277.425-.78.944-.504.519-.976.944-1.05.944-.074 0 .277-.425.78-.944zm4.368.27c.005-.446.066-.595.134-.333.069.263.064.627-.01.81-.074.182-.13-.033-.124-.478zm-12.89-.203l-.513-.607.606.514c.57.483.73.7.514.7-.051 0-.324-.273-.607-.607zm-37.308-.09c.013-.314.077-.378.163-.163.078.195.068.428-.022.517-.09.09-.153-.07-.141-.354zm48.367-.18l-.514-.606.607.513c.57.483.73.7.513.7-.05 0-.324-.273-.606-.607zm-45.13-.36c.012-.313.076-.377.162-.162.078.195.069.427-.021.517-.09.09-.153-.07-.142-.354zm50.415.056c0-.056.212-.268.472-.472.427-.335.437-.326.102.102-.353.45-.574.592-.574.37zm2.36-1.167c.333-.064.88-.064 1.213 0 .334.064.061.117-.606.117-.668 0-.941-.053-.607-.117zM214.963 50c-.185-.222-.276-.404-.201-.404.074 0 .286.182.47.404.185.223.275.405.201.405-.074 0-.286-.182-.47-.405zm56.05-1.937c.194-.078.427-.068.517.021.09.09-.07.154-.354.142-.315-.013-.379-.077-.163-.163zm3.776 0c.194-.078.427-.068.517.021.09.09-.07.154-.354.142-.315-.013-.379-.077-.163-.163zm-6.168-1.906l-.93-1.012.989.907c.61.56 1.116.828 1.323.7.215-.133.266-.096.142.105-.301.487-.528.383-1.524-.7zm10.825.045c.013-.314.076-.378.163-.163.077.195.068.427-.022.517-.09.09-.153-.07-.141-.354zm-3.798-.247c-.184-.223-.275-.405-.2-.405.074 0 .285.182.47.405.185.222.275.404.2.404-.073 0-.285-.182-.47-.404zm-60.146-.237c0-.056.212-.269.472-.472.428-.336.437-.326.102.102-.353.449-.574.592-.574.37zm29.888-.622c.194-.078.427-.068.517.021.09.09-.07.154-.354.142-.315-.013-.378-.077-.163-.163zm-14.025-.27c.194-.078.427-.068.516.022.09.09-.07.153-.354.141-.314-.013-.378-.077-.162-.163zm36.731-.76c.349-.37.694-.674.769-.674.074 0-.15.304-.499.675-.348.37-.694.674-.768.674-.075 0 .15-.304.498-.674zm-26.14-1.37c.012-.315.076-.379.162-.163.078.194.069.427-.021.516-.09.09-.153-.07-.142-.354zm22.364-1.294c0-.056.213-.268.472-.472.428-.335.438-.326.102.102-.352.45-.574.592-.574.37zm2.04-2.246c-.146-.385-.115-.415.151-.151.185.183.268.4.185.484-.083.083-.234-.067-.336-.333zm-49.312-1.605c.182-.074.546-.078.809-.01.262.069.113.129-.332.134-.445.006-.66-.05-.477-.124zm43.176-2.165c.195-.078.427-.068.517.022.09.09-.07.153-.354.141-.314-.013-.378-.077-.163-.163zm-27.325-30.41c-1.78-.912-4.38-2.038-5.777-2.502l-2.54-.843 1.057-.271c5.8-1.491 13.89-1.617 19.882-.31 1.337.292 2.481.581 2.543.643.062.062-.291.197-.784.302-1.495.317-5.515 1.94-8.34 3.368-1.467.741-2.698 1.331-2.736 1.31l-3.305-1.696z" fill="#fcc52e"/><path d="M245.036 91.667c-2.817-1.002-7.26-3.05-8.306-3.826-.44-.327-.268-.51 1.888-2.01 8.484-5.907 14.635-14.18 17.873-24.041.598-1.82 1.086-3.463 1.086-3.652 0-.22.709-.445 1.984-.628 2.498-.36 4.562-1.303 6.065-2.771l1.171-1.144-.631-.677a11.324 11.324 0 0 0-1.396-1.224l-.764-.548-1.124 1.1c-1.212 1.187-2.7 1.936-3.847 1.936-.677 0-.709-.058-.563-1.012.555-3.643.427-10.384-.263-13.836l-.176-.878 1.145.183c1.572.251 3.009 1.032 4.02 2.183l.849.968 1.283-1.148a51.31 51.31 0 0 1 1.4-1.225c.34-.229-2.239-2.372-3.748-3.116-1.352-.667-2.177-.882-3.685-.958l-1.943-.098-.715-2.29c-1.567-5.028-4.288-10.207-7.625-14.515-2.499-3.225-7.174-7.685-10.276-9.803-1.383-.944-2.413-1.813-2.289-1.93.341-.323 4.88-2.568 6.564-3.247a58.558 58.558 0 0 1 3.488-1.23l2.006-.631 2.85.947c7.582 2.523 15.054 7.485 20.283 13.471 6.13 7.018 9.957 15.436 11.433 25.151l.175 1.146h-3.015V57.15h1.097c.917 0 1.075.078.963.472-.074.26-.384 1.382-.69 2.495-3.456 12.619-12.816 23.74-24.835 29.506-2.832 1.359-7.69 3.15-8.453 3.115-.172-.008-1.648-.489-3.28-1.07zm30.275-34.795c.947-.415 1.146-.434 1.146-.113 0 .296.388.39 1.619.39h1.618V51.61c0-4.102-.096-5.763-.371-6.406-1.542-3.603-7.405-4.371-10.89-1.426-.482.408-.876.888-.876 1.067 0 .18.478.792 1.062 1.362l1.061 1.037.84-.84c2.062-2.061 5.26-1.547 5.786.93l.178.84-2.575-.135c-2.024-.106-2.834-.036-3.782.326-3.265 1.247-4.063 5.483-1.473 7.823.576.52 1.384 1.02 1.795 1.111.412.091.87.21 1.019.266.526.196 2.713-.2 3.843-.694zm-3.843-2.727c-1.186-.707-1.271-1.823-.203-2.67.65-.514.986-.572 2.712-.463 1.083.068 2.108.262 2.278.432.44.44-.038 1.616-.924 2.276-.857.638-3.093.884-3.863.425z" fill="#faa922"/><path d="M208.422 94.19a1.04 1.04 0 0 1 .674 0c.186.076.034.137-.337.137-.37 0-.523-.061-.337-.136zm6.203 0a1.04 1.04 0 0 1 .675 0c.185.076.033.137-.337.137-.371 0-.523-.061-.338-.136zm20.836-7.107c-6.572-4.65-10.459-8.441-13.963-13.617-2.757-4.072-4.946-8.85-6.373-13.905-.718-2.547-.826-3.22-.533-3.332.758-.29 1.447-1.882 1.448-3.342.001-1.759-.504-2.789-1.745-3.556-.871-.538-.95-.693-.942-1.847.007-1.055.062-1.188.341-.822.297.39.462.326 1.534-.598l1.202-1.035-.553-.74c-.304-.407-1.059-1.008-1.677-1.335-.62-.327-.996-.638-.838-.69.158-.053.52-1.456.803-3.117 1.09-6.385 4.193-13.827 8.015-19.219 2.376-3.353 7.852-8.812 11.19-11.155 1.542-1.083 2.553-1.967 2.447-2.139-.1-.161.295.075.878.525a93.11 93.11 0 0 0 2.946 2.13c2.546 1.768 7.07 6.187 9.37 9.151 3.306 4.26 6.014 9.395 7.594 14.397.387 1.222.703 2.276.703 2.34 0 .065-.474.194-1.053.287-1.694.27-4.09 1.754-5.22 3.232-1.792 2.345-2.203 3.791-2.214 7.799-.009 3.372.023 3.574.828 5.272.46.971 1.24 2.225 1.732 2.786 1.18 1.343 3.323 2.548 4.915 2.763 1.003.134 1.281.28 1.281.669 0 .273-.48 1.96-1.068 3.75-3.285 10.005-9.439 18.241-18.133 24.271-2.228 1.546-2.245 1.552-2.915 1.077zM224.829 56.61l-.301-1.565c-.138-.722-.212-.755-1.642-.741-1.24.011-1.582-.091-1.992-.597-.59-.727-.88-3.075-.758-6.132l.086-2.158 1.955-.08 1.956-.078v-2.944h-4.046V37.46h-3.272l.085 8.158c.082 7.836.11 8.204.686 9.283.56 1.047 1.548 1.965 2.501 2.323.223.083 1.416.161 2.651.173l2.247.022-.157-.81zm9.85.497c1.16-.396 3.198-1.771 3.399-2.294.091-.239-.259-.82-.873-1.449l-1.026-1.05-1.017.92c-2.323 2.098-5.672 1.342-6.849-1.546l-.411-1.011h10.597l-.128-1.994c-.252-3.919-2.498-6.365-6.051-6.591-2.473-.157-3.99.344-5.516 1.824-1.48 1.436-2.133 3.21-2.13 5.798.002 2.117.35 3.32 1.421 4.911 1.264 1.877 3.14 2.794 5.715 2.794 1.074 0 2.365-.14 2.869-.312zm-6.181-10.232c.534-1.532 2.79-2.308 4.653-1.6.612.233 1.767 1.69 1.77 2.232 0 .112-1.51.203-3.357.203h-3.357zm13.706 5.572c0-2.586.112-4.998.25-5.36.398-1.048 1.985-1.879 3.33-1.744.627.062 1.31.165 1.52.229.27.081.495-.34.774-1.449.216-.86.312-1.645.212-1.745-.1-.1-1.005-.228-2.011-.285-1.472-.083-2.049.008-2.952.47-.934.476-1.123.503-1.123.162 0-.32-.35-.41-1.619-.41h-1.618V57.15h3.237zm-45.363 5.058c.195-.078.427-.068.517.021.09.09-.07.154-.354.142-.314-.013-.378-.077-.163-.163zm13.334-.002a2.21 2.21 0 0 1 .944 0c.26.068.047.123-.472.123-.52 0-.732-.055-.472-.123zm-19.217-10.995V35.866l-1.82-.094-1.821-.095 1.955-.053 1.956-.053v10.79c0 5.933-.061 10.788-.135 10.788-.074 0-.135-4.789-.135-10.642zm10.28 10.289c-.02-.308-.155-.418-.368-.298-.268.151-.269.116-.004-.168.413-.446.701-.197.531.46-.121.47-.128.47-.158.006zm-3.874-2.253a1.04 1.04 0 0 1 .674 0c.185.074.034.136-.337.136s-.523-.061-.337-.136zm12.946 0a1.04 1.04 0 0 1 .674 0c.186.074.034.136-.337.136-.37 0-.523-.061-.337-.136zm45.853-.733c-1.18-.524-2.548-2.017-3.17-3.463-1.933-4.493.025-10.538 3.735-11.53.645-.173 1.217-.27 1.27-.218.622.622 1.03 10.718.566 14.032-.203 1.456-.26 1.55-.939 1.529-.397-.012-1.055-.17-1.462-.35zm-64.328-1.112c-.003-.593.05-.867.117-.61.068.258.07.744.005 1.08-.064.335-.12.124-.122-.47zm14.286.261c.404-.424.782-.717.841-.65.06.065-.27.413-.733.77l-.841.652zm6.705.256c.013-.314.077-.378.163-.163.078.195.068.428-.021.517-.09.09-.154-.07-.142-.354zm-17.801-.54c.013-.313.077-.377.163-.162.078.195.068.427-.021.517-.09.09-.154-.07-.142-.354zm5.975-.65c0-.52.055-.732.123-.473.068.26.068.685 0 .944-.068.26-.123.047-.123-.472zm-36.183.112c.013-.315.077-.379.163-.163.078.194.068.427-.021.517-.09.09-.154-.07-.142-.354zm32.816-1.382c.334-.064.88-.064 1.214 0 .334.064.06.117-.607.117s-.94-.053-.607-.117zm-4.517-1.293c.348-.371.694-.674.768-.674.074 0-.15.303-.499.674-.348.37-.694.674-.768.674-.074 0 .15-.303.499-.674zm13.325-.202l-.514-.607.607.513c.57.483.73.7.514.7-.051 0-.325-.273-.607-.606zm-41.832-1.956c.002-.89.052-1.222.112-.737.06.485.06 1.213-.003 1.619-.061.405-.11.008-.109-.882zm34.643.765a1.04 1.04 0 0 1 .674 0c.185.075.034.137-.337.137s-.523-.062-.337-.137zm1.707-.787c.013-.315.077-.378.163-.163.077.194.068.427-.022.517-.09.09-.153-.07-.141-.354zm3.277-.382c0-.52.056-.732.124-.472s.068.684 0 .944c-.068.26-.124.047-.124-.472zm-11.135-1.012l-.93-1.011 1.012.93c.941.864 1.135 1.093.93 1.093-.046 0-.5-.456-1.012-1.012zm7.065-.076c-.35-.292-.521-.53-.38-.53.143 0 .478.242.747.539.617.681.457.677-.367-.01zm-7.32-1.744c.348-.371.694-.675.768-.675.074 0-.15.304-.498.675-.349.37-.695.674-.769.674-.074 0 .15-.304.499-.674zm6.962-1.938c.195-.078.427-.068.517.022.09.09-.07.153-.354.141-.314-.013-.378-.077-.163-.163zm-27.056-6.289l-1.888-.174 1.805-.048c.992-.026 1.88.074 1.971.222.092.149.13.249.084.222-.046-.026-.933-.126-1.972-.222zM209.366.053a2.21 2.21 0 0 1 .944 0c.26.068.047.123-.472.123-.52 0-.732-.055-.472-.123zm4.046 0a2.21 2.21 0 0 1 .944 0c.26.068.047.123-.472.123-.52 0-.732-.055-.472-.123z" fill="#f79733"/><path d="M12.137 99.264c0-.736.235-.88 5.327-3.28 22.277-10.5 39.376-16.815 57.96-21.408 25.639-6.336 51.96-8.315 78.988-5.937 2.67.235 4.901.473 4.958.528.115.112-.522 15.845-.646 15.983-.043.047-1.698-.222-3.679-.597-36.81-6.966-69.93-6.277-103.664 2.159-11.199 2.8-26.224 7.84-36.808 12.348-1.257.536-2.319.973-2.36.973-.042 0-.076-.346-.076-.77z" fill="#feaa00"/><path d="M210.589 94.17a22.11 22.11 0 0 1 2.697.001c.7.056.058.1-1.425.1-1.484-.001-2.056-.046-1.272-.101zm10.712-2.254c-14.527-4.82-26.373-17.225-30.365-31.8a442.917 442.917 0 0 0-.689-2.495c-.097-.341.02-.472.423-.472.554 0 .558-.063.558-10.766 0-8.373-.075-10.792-.338-10.88-.247-.084-.096-.858.573-2.922 4.549-14.043 15.796-25.403 29.746-30.043l2.875-.956 2.52.832c2.478.82 7.972 3.324 8.954 4.082.467.36.316.518-2.158 2.255-3.369 2.366-8.833 7.809-11.22 11.177-3.701 5.222-6.881 12.722-7.893 18.615a266.95 266.95 0 0 1-.544 3.097c-.097.496-.32.54-2.794.54-2.305 0-2.797.08-3.45.564-1.331.985-1.977 2.201-1.975 3.723.002 2.328 1.094 3.498 4.18 4.478 2.236.711 3.1 1.302 3.1 2.12 0 1.934-4.104 1.72-5.509-.286l-.42-.6-1.216 1.192-1.215 1.193-.006-4.17c-.006-3.475-.09-4.348-.504-5.248-.99-2.144-2.742-3.108-5.618-3.09-2.1.014-3.447.425-4.816 1.47-1.42 1.081-1.442 1.419-.175 2.6l1.107 1.033.783-.782c1.02-1.02 2.745-1.5 3.954-1.1 1.105.364 1.647.966 1.852 2.06l.159.842-2.347-.132c-2.886-.161-4.446.224-5.607 1.385-1.903 1.904-1.851 4.795.12 6.673 1.686 1.606 4.66 1.876 7.048.641.725-.375.813-.376.813-.01 0 .324.347.412 1.618.412h1.618v-2.533l.877.848c1.987 1.923 5.868 2.691 7.982 1.58.496-.26.935-.435.977-.387.042.048.448 1.43.902 3.071 1.705 6.151 4.615 11.832 8.697 16.976 2.624 3.306 7.764 7.912 11.38 10.197.408.258.742.567.742.688 0 .602-10.702 5.208-11.96 5.148-.172-.008-1.404-.377-2.74-.82zm-50.72-44.882c0-5.488.037-7.695.08-4.904.044 2.79.044 7.282 0 9.98-.044 2.697-.08.413-.08-5.076zm3.233 2.967c0-3.857.037-5.472.084-3.59.046 1.883.046 5.039 0 7.013-.046 1.975-.084.434-.084-3.423zm22.33 4.134c-1.172-.594-1.099-2.474.114-2.935.753-.287 3.143-.334 4.087-.081.902.242.738 1.857-.264 2.602-.85.632-3.05.863-3.937.414zm-8.37-.627c.005-.445.066-.595.134-.332.069.262.064.626-.01.809-.074.182-.13-.032-.124-.477zm24.073-5.245c-2.382-.848-3.088-1.313-3.088-2.035 0-1.268 2.084-1.64 3.677-.655.832.514.908.673.908 1.888 0 .73-.03 1.318-.067 1.307-.037-.011-.68-.238-1.43-.505zm-24.058-3.926c-.003-.593.05-.868.118-.61.067.258.07.744.005 1.08-.065.335-.12.124-.123-.47zM211.258.045c.41-.062 1.016-.06 1.348.004.332.064-.004.115-.745.113-.742-.002-1.013-.054-.603-.116z" fill="#f2711f"/><path d="M205.927 93.914c-2.394-.312-6.649-1.303-9.023-2.103-24.652-8.302-37.88-34.815-29.687-59.502 5.31-15.995 18.853-27.926 35.506-31.28 5.62-1.13 13.696-1.008 19.742.3l1.435.311-2.783.928c-13.902 4.633-25.313 16.214-29.658 30.099l-.906 2.894-1.642.005-1.642.005-2.635 6.775c-1.449 3.725-2.877 7.32-3.172 7.989l-.538 1.215-3.05-7.705c-1.677-4.237-3.128-7.833-3.225-7.99-.096-.156-1.008-.284-2.026-.284h-1.85l-.171 1.686c-.094.927-.134 5.752-.089 10.721l.081 9.036h3.237l.135-6.721.135-6.721 2.726 6.72 2.727 6.722 1.345.08 1.345.08 2.662-6.681c3.096-7.772 3.12-7.777 3.055-.627-.021 2.3-.023 4.879-.004 5.732l.034 1.55h1.068c1.032 0 1.079.04 1.358 1.147 2.362 9.373 7.653 18.117 14.67 24.244 4.723 4.123 10.67 7.557 16.214 9.362l2.427.79-1.079.29c-2.885.774-6.38 1.115-11.058 1.077-2.67-.022-5.22-.087-5.664-.145z" fill="#eb1922"/><path d="M85.773 58.456c-4.573-.477-9.487-2.028-13.68-4.317l-1.944-1.06 2.501-3.832 3.158-4.839c.36-.554.745-1.01.853-1.011.108-.002 1.383.666 2.832 1.485 3.901 2.205 6.209 2.88 10.322 3.02 3.124.106 3.46.068 4.57-.512 1.817-.949 2.847-2.399 2.847-4.007 0-1.129-.13-1.443-.944-2.289-.52-.539-2.036-1.656-3.371-2.482-10.164-6.292-13.106-9.725-13.122-15.307-.008-2.734.593-5.086 1.98-7.757 1.886-3.63 5.248-6.188 10.063-7.654 2.256-.686 2.779-.74 7.417-.758 5.584-.022 7.49.329 11.704 2.153 2.173.94 6.1 3.248 6.093 3.578-.003.101-1.642 2.094-3.643 4.43l-3.637 4.247-1.685-1.241c-4.44-3.272-8.895-4.18-12.25-2.497-1.656.83-2.38 1.838-2.38 3.31 0 2.036 1.215 3.167 7.997 7.443 3.937 2.481 7.359 5.902 8.754 8.752 1.02 2.083 1.05 2.225 1.05 5.019v2.875l-1.457 2.938c-1.237 2.497-1.783 3.262-3.64 5.11-3.251 3.23-6.36 4.598-11.896 5.232-2.79.32-5.238.311-8.492-.029zm-73.468-20.12c-1.163-10.495-2.274-19.886-2.468-20.87-.934-4.715-3.879-7.507-8.421-7.984C.15 9.35 0 9.266 0 8.697v-.636h22.601l.165 1.82c.398 4.406 1.763 26.892 1.781 29.332.005.632.2.337.892-1.349.939-2.286 2.654-5.388 11.297-20.43l5.386-9.373H56.12l-.321.607c-.42.792-23.944 42.387-26.008 45.986l-1.586 2.764H14.42zm35.778 18.885c.062-.114 3.438-11.222 7.504-24.684l7.391-24.476h6.676c3.671 0 6.675.102 6.675.226 0 .125-3.323 11.2-7.385 24.612l-7.386 24.385-6.793.072c-3.737.04-6.743-.021-6.682-.135zm62.77.07c0-.117 7.109-13.509 20.979-39.52l5.105-9.576 8.909-.07 8.908-.072.163 1.15c.09.633 1.071 11.345 2.182 23.806 1.11 12.461 2.075 23.05 2.144 23.533l.124.876H145.7l-.18-3.439c-.099-1.89-.229-3.59-.288-3.776-.084-.26-1.97-.337-8.23-.337h-8.121l-1.786 3.776-1.786 3.776h-7.228c-3.976 0-7.228-.057-7.228-.128zm33.888-18.28c-.236-2.51-.731-13.821-.794-18.114l-.054-3.752-1.326 3.077c-.73 1.693-3.066 6.918-5.192 11.612-2.126 4.694-3.866 8.608-3.866 8.698 0 .09 2.563.164 5.695.164h5.696z" fill="#01239e"/></symbol></svg>