<?xml version="1.0" encoding="UTF-8"?>
<!DOCTYPE svg PUBLIC "-//W3C//DTD SVG 1.1//EN" "http://www.w3.org/Graphics/SVG/1.1/DTD/svg11.dtd">
<!-- Creator: CorelDRAW X6 -->
<svg xmlns="http://www.w3.org/2000/svg" xml:space="preserve" width="164.645mm" height="34.6962mm" version="1.1" style="shape-rendering:geometricPrecision; text-rendering:geometricPrecision; image-rendering:optimizeQuality; fill-rule:evenodd; clip-rule:evenodd"
viewBox="0 0 16465 3470"
 xmlns:xlink="http://www.w3.org/1999/xlink">
 <defs>
  <style type="text/css">
   <![CDATA[
    .fil0 {fill:url(#id0);fill-rule:nonzero}
   ]]>
  </style>
  <linearGradient id="id0" gradientUnits="userSpaceOnUse" x1="-0" y1="1734.81" x2="17016.8" y2="1734.81">
   <stop offset="0" style="stop-color:#E31E24"/>
   <stop offset="1" style="stop-color:#393185"/>
  </linearGradient>
 </defs>
 <g id="Слой_x0020_1">
  <metadata id="CorelCorpID_0Corel-Layer"/>
  <path class="fil0" d="M872 0c-295,0 -581,0 -872,0l0 3421c688,0 1405,0 2103,0 0,-293 0,-494 0,-787l-1231 0c0,-1456 0,-865 0,-2634zm2834 2683c-252,0 -519,-137 -519,-416l0 -2267c-271,0 -557,0 -828,0l0 2282c0,753 654,1188 1347,1188 697,0 1351,-435 1351,-1188l0 -2282c-271,0 -562,0 -838,0l0 2267c0,279 -261,416 -513,416zm3090 -337l620 1075 935 0 0 -132 -1099 -1681 978 -1476 0 -132 -896 0 -543 889 -24 0 -538 -889 -901 0 0 132 979 1476 -1095 1681 0 132 935 0 620 -1075 29 0zm2611 -2346c-296,0 -582,0 -872,0l0 3421c688,0 1405,0 2102,0 0,-293 0,-494 0,-787l-1230 0c0,-1456 0,-865 0,-2634zm3638 0c-795,0 -1333,0 -2118,0 0,1134 0,2277 0,3421 785,0 1367,0 2161,0 0,-259 0,-523 0,-777 -508,0 -799,0 -1298,0 0,-206 0,-401 0,-601l1153 0c0,-259 0,-518 0,-777l-1153 0 0 -484c499,0 751,0 1255,0 0,-264 0,-528 0,-782zm1763 0l-1280 0 0 3421 1280 0c2209,-10 2209,-3411 0,-3421zm-412 797l412 0c1080,0 1080,1827 0,1827l-412 0 0 -1827z"/>
 </g>
</svg>
